<svg id="trash-red" xmlns="http://www.w3.org/2000/svg" width="32" height="32" viewBox="0 0 32 32">
  <g id="Layer_2" data-name="Layer 2">
    <path id="Caminho_8" data-name="Caminho 8" d="M20,29H12a5,5,0,0,1-5-5V12a1,1,0,0,1,2,0V24a3,3,0,0,0,3,3h8a3,3,0,0,0,3-3V12a1,1,0,0,1,2,0V24A5,5,0,0,1,20,29Z" fill="#f01e1e"/>
    <path id="Caminho_9" data-name="Caminho 9" d="M26,9H6A1,1,0,0,1,6,7H26a1,1,0,0,1,0,2Z" fill="#f01e1e"/>
    <path id="Caminho_10" data-name="Caminho 10" d="M20,9H12a1,1,0,0,1-1-1V6a3,3,0,0,1,3-3h4a3,3,0,0,1,3,3V8A1,1,0,0,1,20,9ZM13,7h6V6a1,1,0,0,0-1-1H14a1,1,0,0,0-1,1Z" fill="#f01e1e"/>
    <path id="Caminho_11" data-name="Caminho 11" d="M14,23a1,1,0,0,1-1-1V15a1,1,0,0,1,2,0v7A1,1,0,0,1,14,23Z" fill="#f01e1e"/>
    <path id="Caminho_12" data-name="Caminho 12" d="M18,23a1,1,0,0,1-1-1V15a1,1,0,0,1,2,0v7A1,1,0,0,1,18,23Z" fill="#f01e1e"/>
  </g>
  <g id="frame">
    <rect id="Retângulo_3" data-name="Retângulo 3" width="32" height="32" fill="none"/>
  </g>
</svg>
