<svg xmlns="http://www.w3.org/2000/svg" xmlns:xlink="http://www.w3.org/1999/xlink" width="34" height="34" viewBox="0 0 34 34">
  <defs>
    <clipPath id="clip-planner">
      <rect width="34" height="34"/>
    </clipPath>
  </defs>
  <g id="planner" clip-path="url(#clip-planner)">
    <g id="plan" transform="translate(-8 -1)">
      <path id="Ret창ngulo_2" data-name="Ret창ngulo 2" d="M3,0H3A3,3,0,0,1,6,3V14a0,0,0,0,1,0,0H0a0,0,0,0,1,0,0V3A3,3,0,0,1,3,0Z" transform="translate(9 6)" fill="#fff"/>
      <path id="Ret창ngulo_1" data-name="Ret창ngulo 1" d="M0,0H24a0,0,0,0,1,0,0V18a0,0,0,0,1,0,0H4a4,4,0,0,1-4-4V0A0,0,0,0,1,0,0Z" transform="translate(9 10)" fill="#fff"/>
      <path id="construction" d="M24,23H4a4,4,0,0,1-4-4V3.306A3.1,3.1,0,0,1,3,1,3,3,0,0,1,5.995,3.312L6,5H24ZM23,6H6V19a2.5,2.5,0,0,0-2-1,2,2,0,0,0,0,4H23ZM5,3.32A2.175,2.175,0,0,0,3,2,2.128,2.128,0,0,0,1,3.32V19.5a3.1,3.1,0,0,1,4-2.4V3.32ZM20,19H8V9H20Zm-8-9H9v8H19V14H17v3H16V14H13v3H12Zm7,0H13v3h6Z" transform="translate(9 5)" fill-rule="evenodd"/>
    </g>
    <g id="party" transform="translate(-8 -1)">
      <path id="Caminho_1" data-name="Caminho 1" d="M-101.577-84.5l1.372,4.1L-98-81.477Z" transform="translate(133 106)" fill="#b41d1d"/>
      <path id="Caminho_2" data-name="Caminho 2" d="M-103.248-86l1.372.885,1.67,4.951-1.968.716-1.73-5.189Z" transform="translate(133 106)" fill="#304ba1"/>
      <path id="Caminho_3" data-name="Caminho 3" d="M-105.156-81.238l1.193-3.1,2.028,4.951-2.028.895Z" transform="translate(133 106)" fill="#fff"/>
      <path id="Caminho_4" data-name="Caminho 4" d="M-106.349-77.659l1.312-3.519,1.014,2.684Z" transform="translate(133 106)" fill="#ff0"/>
      <path id="Caminho_5" data-name="Caminho 5" d="M-95-87l1.25-.375.656,1.031-.469,1L-95-85.594Z" transform="translate(133 106)" fill="#ff0"/>
      <path id="Caminho_6" data-name="Caminho 6" d="M-99.375-90.75l1.094.969.875-.969-1.125-1Z" transform="translate(133 106)" fill="#304ba1"/>
      <path id="Caminho_7" data-name="Caminho 7" d="M-94.047-90.187l.922-.906.844,1.031-.844.688Z" transform="translate(133 106)" fill="#b41d1d"/>
      <path id="party-2" data-name="party" d="M10.949,6.258a.313.313,0,0,1-.09.433l-1.375.9a.308.308,0,0,1-.171.051.312.312,0,0,1-.172-.573l1.376-.9a.311.311,0,0,1,.433.09m-3.9-1.622.694-1.491a.312.312,0,1,1,.566.263L7.614,4.9a.313.313,0,0,1-.283.18L7.2,5.05a.311.311,0,0,1-.151-.414m-1.64.383a4.679,4.679,0,0,0,.2-4.554A.313.313,0,0,1,6.158.171a5.267,5.267,0,0,1-.2,5.136.312.312,0,0,1-.554-.288M15,8.473a.313.313,0,0,1-.419.294,4.687,4.687,0,0,0-4.545.382.312.312,0,1,1-.362-.508A5.273,5.273,0,0,1,14.8,8.18.312.312,0,0,1,15,8.473M4.7,6.843l1.791,4.7-1.405.6-1.721-4.7.486-1.36.849.754ZM7.064,11.3,5.709,7.741,8.849,10.53Zm-5.169.262.618,1.687-1.442.618Zm1.139-3.19L4.508,12.39,3.089,13l-.865-2.361.811-2.269ZM0,15l10-4.283L3.572,5.006,0,15ZM12.789,5.232l.345-.434.176.526.519.193-.446.33L13.36,6.4l-.452-.323-.534.149.168-.529-.307-.462.554,0Zm-.865.553-.4,1.262L12.8,6.692l1.078.769.056-1.322L15,5.353l-1.241-.462-.42-1.255-.822,1.036-1.324.011ZM10.57,3.164c.371-.028.578-.088.671-.2.11-.128.141-.4.1-.9a.312.312,0,0,1,.623-.052,1.836,1.836,0,0,1-.251,1.348,1.536,1.536,0,0,1-1.1.4c-.439.033-.45.152-.484.549a1.126,1.126,0,0,1-1.15,1.208c-.636.072-.9.206-.861,1.223.005.172-.129.2-.3.2h-.01c-.168,0-.307-.014-.313-.182-.031-.913.119-1.659,1.416-1.8.546-.062.563-.253.6-.67A1.034,1.034,0,0,1,10.57,3.164m3.29-1.905a.515.515,0,1,1-.515.515.515.515,0,0,1,.515-.515m0,1.654a1.139,1.139,0,1,0-1.14-1.139,1.14,1.14,0,0,0,1.14,1.139M8.581.624a.624.624,0,1,1-.625.624A.626.626,0,0,1,8.581.624m0,1.874a1.249,1.249,0,1,0-1.25-1.249A1.25,1.25,0,0,0,8.581,2.5" transform="translate(25.999 14)" fill-rule="evenodd"/>
    </g>
  </g>
</svg>
